<svg height='100px' width='100px'  fill="#000000" xmlns="http://www.w3.org/2000/svg" xmlns:xlink="http://www.w3.org/1999/xlink" version="1.1" x="0px" y="0px" viewBox="0 0 512 512" style="enable-background:new 0 0 512 512;" xml:space="preserve"><g><path d="M174.9,94H86.5C55.1,94,30,120.1,30,151.5v270C30,453,55.1,479,86.5,479h278c31.4,0,56.5-26,56.5-57.5   v-85.5c0-9.4-7.6-17-17-17s-17,7.6-17,17v85.5c0,12.7-9.8,23.5-22.5,23.5h-278C73.8,445,64,434.2,64,421.5v-270   c0-12.7,9.8-23.5,22.5-23.5h88.4c9.4,0,17-7.6,17-17S184.3,94,174.9,94z"></path><path d="M174.3,336.2c3.2,3.3,7.6,5,12.1,5c1.5,0,3-0.2,4.5-0.6l76.4-20.9c7.7-2.1,14.8-6.2,20.5-11.7l176.9-172.8   c11.5-11.3,17.8-26.3,17.8-42.4c0-16.1-6.3-31.1-17.8-42.4c-11.2-10.9-25.9-17-41.6-17c-15.6,0-30.4,6-41.5,16.9l-178,173.9   c-5.8,5.7-10.1,12.9-12.4,20.8L170,319.6C168.3,325.5,170,331.9,174.3,336.2z M404.2,146.8L368,111.3l13-12.7l36.2,35.5   L404.2,146.8z M423.1,67.5c6.4,0,12.9,2.4,17.8,7.2c4.9,4.8,7.6,11.2,7.6,18.1c0,6.6-2.5,12.7-7,17.5l-36.2-35.5l0.1-0.1   C410.2,69.9,416.7,67.5,423.1,67.5z M223.9,254.3c0.6-2.2,1.8-4.2,3.4-5.7L343.6,135l36.2,35.5L264,283.7c-1.6,1.5-3.5,2.7-5.7,3.2   L211,299.9L223.9,254.3z"></path></g></svg>