<svg height='100px' width='100px' fill="#3273dc" xmlns="http://www.w3.org/2000/svg"
	xmlns:xlink="http://www.w3.org/1999/xlink" version="1.1" x="0px" y="0px" viewBox="0 0 100 100"
	style="enable-background:new 0 0 100 100;" xml:space="preserve">
	<style type="text/css">
		.st0 {
			fill-rule: evenodd;
			clip-rule: evenodd;
		}
	</style>
	<g>
		<g>
			<path
				d="M74.1,37.6c-0.9-12-10.9-21.7-23-22.3c-13.8-0.6-25.2,10.4-25.2,24.1c0,3.4,0.7,6.7,2,9.7h0l0,0.1    c0.4,0.9,11.6,21.5,17.9,33c1.8,3.3,6.5,3.3,8.3,0c3.4-6.2,17.8-32.8,17.9-33l0-0.1h0C73.6,45.6,74.4,41.7,74.1,37.6z M50,50    c-5.8,0-10.5-4.7-10.5-10.5c0-5.8,4.7-10.5,10.5-10.5s10.5,4.7,10.5,10.5C60.5,45.3,55.8,50,50,50z">
			</path>
		</g>
	</g>
</svg>